<?xml version="1.0" standalone="no"?>
<!DOCTYPE svg PUBLIC "-//W3C//DTD SVG 20010904//EN"
 "http://www.w3.org/TR/2001/REC-SVG-20010904/DTD/svg10.dtd">
<svg version="1.0" xmlns="http://www.w3.org/2000/svg"
 width="928.000000pt" height="1280.000000pt" viewBox="0 0 928.000000 1280.000000"
 preserveAspectRatio="xMidYMid meet">
<metadata>
Created by potrace 1.15, written by Peter Selinger 2001-2017
</metadata>
<g transform="translate(0.000000,1280.000000) scale(0.100000,-0.100000)"
fill="#2196f3" stroke="none">
<path d="M2731 12790 c-55 -13 -74 -41 -79 -114 l-4 -64 223 -7 c123 -3 446
-5 717 -3 571 4 529 -5 518 103 -3 32 -10 63 -15 68 -4 4 -48 12 -97 17 -107
12 -1215 11 -1263 0z"/>
<path d="M2776 12168 c-3 -200 -8 -838 -11 -1418 -3 -580 -8 -1170 -11 -1311
l-6 -256 -67 -30 c-63 -29 -291 -181 -339 -227 l-23 -23 -6 -936 c-5 -682 -9
-937 -17 -937 -19 0 -392 144 -556 215 -159 68 -354 145 -369 145 -4 0 -23
-39 -41 -87 -18 -49 -71 -170 -117 -271 -47 -100 -83 -192 -81 -204 2 -12 23
-37 48 -56 67 -51 76 -73 57 -141 -9 -31 -95 -240 -191 -465 -167 -386 -205
-481 -220 -552 -6 -29 -5 -30 41 -42 47 -13 511 -211 607 -259 l49 -25 42 46
c28 31 50 46 66 46 14 0 81 -16 149 -35 68 -19 125 -35 126 -35 1 0 23 53 49
118 26 64 69 167 95 227 27 61 61 152 76 203 15 50 33 92 39 92 16 0 387 -151
489 -199 l83 -38 6 -264 c4 -145 7 -335 7 -422 0 -117 3 -159 13 -161 19 -6
1219 -27 1224 -22 3 3 11 201 17 440 7 240 15 438 18 441 3 3 30 8 59 12 30 3
63 13 73 22 49 42 68 142 82 434 l6 138 637 -6 c350 -3 769 -10 931 -15 333
-11 362 -16 560 -95 272 -109 328 -145 538 -349 183 -178 246 -279 328 -526
55 -165 76 -305 78 -515 1 -160 -2 -189 -22 -260 -94 -330 -232 -527 -491
-704 -113 -77 -270 -144 -456 -195 -20 -6 -22 2 -42 150 -13 97 -26 160 -34
167 -11 9 -438 10 -1779 5 -1721 -7 -4342 -2 -4407 8 l-33 5 0 -176 0 -175
118 -1 c64 -1 433 -4 819 -8 446 -4 706 -10 712 -16 5 -6 13 -161 19 -368 5
-196 11 -359 13 -361 2 -3 555 -10 1229 -17 674 -6 1226 -13 1228 -14 1 -1 8
-221 15 -489 l12 -486 -23 0 c-21 0 -640 308 -848 422 -78 43 -83 44 -110 30
-90 -46 -351 -199 -489 -287 -88 -56 -248 -154 -355 -218 l-195 -117 -401 0
c-220 0 -503 -3 -627 -7 l-227 -6 0 -207 0 -207 -342 -7 c-189 -3 -400 -9
-471 -12 l-127 -7 0 -633 0 -634 4600 0 4600 0 0 635 0 635 -177 1 c-1047 8
-1573 15 -1579 22 -5 4 -10 167 -12 361 l-4 354 28 6 c16 3 101 17 189 31 250
41 405 85 613 173 171 73 504 344 656 534 112 140 243 420 301 645 56 216 80
605 51 818 -45 317 -146 617 -312 920 -96 175 -298 476 -446 663 -71 89 -167
215 -213 280 -46 64 -138 191 -204 282 -66 91 -146 201 -178 245 -31 44 -95
130 -142 191 -47 61 -131 174 -186 250 -55 76 -154 211 -220 299 -66 88 -172
232 -235 319 -63 87 -152 204 -196 261 -45 56 -116 153 -158 216 -41 63 -132
186 -202 274 -70 88 -155 198 -188 245 -33 47 -82 113 -109 147 l-49 61 -142
6 c-77 3 -300 10 -494 16 -194 5 -357 12 -362 15 -6 4 -10 55 -10 115 0 60 -4
111 -9 115 -6 3 -175 6 -377 6 l-367 -1 -34 38 c-19 20 -59 78 -90 127 -30 50
-99 153 -153 230 -54 77 -112 163 -129 191 l-31 51 -7 1377 -6 1376 -617 0
-618 0 -6 -362z m1247 -3478 c120 -41 219 -94 261 -140 18 -20 51 -68 72 -106
l39 -69 3 -194 4 -194 -67 -98 c-74 -109 -153 -186 -233 -226 l-53 -26 -207 7
c-241 8 -224 1 -363 139 -63 63 -90 99 -118 157 -36 74 -36 76 -36 205 0 159
21 235 94 348 51 78 107 124 218 181 70 35 111 44 212 45 68 1 100 -5 174 -29z"/>
<path d="M3738 8531 c-84 -27 -139 -63 -201 -132 -49 -54 -57 -68 -63 -117 -4
-30 -4 -96 -1 -146 5 -82 10 -99 49 -176 57 -110 81 -123 258 -138 152 -12
234 -3 294 32 52 30 77 67 113 168 37 101 38 240 3 310 -36 73 -74 113 -144
151 -123 68 -205 80 -308 48z m170 -278 c38 -23 45 -52 30 -114 l-13 -54 -55
3 c-30 2 -71 7 -90 11 -35 7 -35 8 -34 58 3 91 36 127 109 115 17 -2 40 -11
53 -19z"/>
<path d="M2780 4743 c0 -16 13 -28 58 -48 205 -96 303 -121 508 -131 160 -8
211 2 379 69 100 40 212 103 202 114 -4 3 -263 8 -577 12 l-570 6 0 -22z"/>
<path d="M670 4170 c-591 -5 -645 -6 -648 -22 -2 -10 5 -19 18 -23 74 -24 489
-28 3276 -32 l2972 -4 4 38 c3 21 3 40 1 43 -3 3 -1124 5 -2491 5 -1368 0
-2777 -2 -3132 -5z"/>
</g>
</svg>
